<svg xmlns="http://www.w3.org/2000/svg" viewBox="0 0 22 22"><defs><style>.cls-1{fill:#f3f3f3;}</style></defs><g id="Layer_2" data-name="Layer 2"><g id="Icon_feather-square" data-name="Icon feather-square"><path class="cls-1" d="M17.885,21H4.115A3.113,3.113,0,0,1,1,17.89V4.11A3.113,3.113,0,0,1,4.115,1h13.77A3.113,3.113,0,0,1,21,4.11V17.88A3.115,3.115,0,0,1,17.885,21ZM4.115,3.29a.824.824,0,0,0-.82.82V17.88a.824.824,0,0,0,.82.82h13.77a.824.824,0,0,0,.82-.82V4.11a.824.824,0,0,0-.82-.82Z"/></g></g></svg>