<svg xmlns="http://www.w3.org/2000/svg" viewBox="0 0 33.254 38.4"><defs><style>.cls-1{fill:#00006b;}.cls-2{fill:#8d0ab2;}</style></defs><g id="Capa_3" data-name="Capa 3"><path class="cls-1" d="M5.173,2.545s4.568.282,4.85.376.033,6.482.033,6.482-2.751.376-2.86.376-3.508-.657-3.508-.657-.392-1.5,0-1.785S5.173,2.545,5.173,2.545Z"/><path class="cls-1" d="M28.57,28.662s2.055.752,2.336.846.033,6.482.033,6.482-2.75.376-2.86.376-5.843-2.349-5.843-2.349a6.78,6.78,0,0,0,2.335-.094C24.963,33.642,28.57,28.662,28.57,28.662Z"/><polygon class="cls-2" points="2 4.518 5.173 2.545 8.128 4.518 7.196 9.779 3.688 9.122 2 4.518"/><path class="cls-2" d="M28.57,28.662,23.739,30.87l-1.5,3.147,4.04,1.128s1.772-1.316,2.013-1.6A35.39,35.39,0,0,0,28.57,28.662Z"/><path class="cls-1" d="M12.748,10.907l1.738.8.176,1.445s-1.2.6-1.3.6H11.7l-.328-.211Z"/><polygon class="cls-1" points="19.706 15.228 22.271 15.721 22.271 17.307 21.461 18.117 19.944 18.422 19.706 15.228"/><path class="cls-1" d="M28.289,6.773a14.187,14.187,0,0,0,1.733,0l.916-.611-.6-1.291L29.4,4.049s-.649.927-.684,1.033S28.289,6.773,28.289,6.773Z"/><polygon class="cls-2" points="27.597 4.706 29.403 4.049 29.403 5.74 28.289 6.773 27.597 4.706"/><polygon class="cls-2" points="12.748 10.907 14.027 12.879 11.375 13.537 11.375 12.222 12.748 10.907"/><polygon class="cls-2" points="19.706 15.228 21.203 17.295 19.944 18.422 19.083 18.047 18.587 17.953 19.706 15.228"/></g></svg>