<svg id="Capa_1" data-name="Capa 1" xmlns="http://www.w3.org/2000/svg" viewBox="0 0 22 22"><defs><style>.cls-1{fill:#f3f3f3;}</style></defs><g id="Grupo_246" data-name="Grupo 246"><path id="Icon_awesome-cube" data-name="Icon awesome-cube" class="cls-1" d="M10.335,1.122l-8.27,3.1a1.917,1.917,0,0,0-1.24,1.79v8.95a1.931,1.931,0,0,0,1.05,1.71l8.27,4.13a1.906,1.906,0,0,0,1.71,0l8.27-4.13a1.891,1.891,0,0,0,1.05-1.71V6.012a1.89,1.89,0,0,0-1.24-1.78l-8.27-3.1A1.75,1.75,0,0,0,10.335,1.122Zm.67,2.46,7.63,2.86v.04l-7.63,3.1-7.63-3.1v-.04Zm1.27,14.15v-5.92l6.36-2.58v5.32Z"/></g></svg>